<svg width="226" height="52" viewBox="0 0 226 52" fill="none" xmlns="http://www.w3.org/2000/svg">
<path d="M23.552 13.5045L23.981 14.1051L23.4662 15.3064L23.0372 15.5638C20.9207 14.2481 19.0903 13.5903 17.5459 13.5903C12.6838 13.6475 8.87986 15.9356 6.1342 20.4545C3.38854 24.9734 2.0157 31.1225 2.0157 38.9019C2.0157 42.6772 2.53052 45.4229 3.56014 47.1389C4.64697 48.7977 6.22 49.6272 8.27925 49.6272C10.1097 49.6272 11.9401 48.9694 13.7706 47.6537C15.6582 46.2809 17.4029 44.0214 19.0045 40.8754H19.5193L20.2915 41.9908C18.5183 45.1369 16.6878 47.4249 14.8002 48.8549C12.9126 50.2278 10.7675 51.0858 8.36505 51.429H7.67864C6.1342 51.143 4.81857 50.6568 3.73174 49.9704C2.70212 49.284 1.8727 48.0541 1.24349 46.2809C0.614271 44.5076 0.299664 42.0194 0.299664 38.8161C0.299664 30.7507 1.8441 24.2584 4.93297 19.3391C8.02184 14.3625 12.6266 11.8743 18.7471 11.8743L23.552 13.5045ZM47.8527 11.7027C50.7128 11.9315 52.7721 12.9897 54.0305 14.8774C55.3461 16.765 56.0039 19.6537 56.0039 23.5434C56.0039 28.7487 55.3175 33.4392 53.9447 37.6149C52.5719 41.7334 50.5984 45.0225 48.0243 47.4821C45.4503 49.9418 42.4186 51.286 38.9293 51.5148H38.5003C35.6403 51.3432 33.5524 50.3136 32.2368 48.4259C30.9211 46.4811 30.2633 43.5066 30.2633 39.5025C30.2633 34.2972 30.9497 29.6067 32.3226 25.431C33.7526 21.1981 35.7547 17.8804 38.3287 15.478C40.9028 13.0183 43.9345 11.7599 47.4237 11.7027H47.8527ZM47.4237 13.5045C44.3921 13.5045 41.7036 14.6199 39.3583 16.8508C37.0703 19.0817 35.2684 22.1705 33.9528 26.1174C32.6372 30.0071 31.9794 34.383 31.9794 39.2451C31.9794 42.7916 32.5228 45.4229 33.6096 47.1389C34.7536 48.8549 36.4983 49.713 38.8435 49.713C41.818 49.713 44.4779 48.5975 46.8231 46.3667C49.1684 44.0786 50.9702 40.9612 52.2286 37.0143C53.5443 33.0674 54.2021 28.6629 54.2021 23.8008C54.2021 20.2543 53.6587 17.6516 52.5719 15.9928C51.485 14.3339 49.769 13.5045 47.4237 13.5045ZM90.9669 11.3595C92.3397 11.7599 93.4266 12.6465 94.2274 14.0193C95.0282 15.335 95.4 16.8794 95.3428 18.6526L95.257 19.7681L91.5675 42.334L90.5379 51L88.3928 51.3432L93.4552 20.0255L93.541 18.7384C93.5982 17.3084 93.3122 16.1072 92.6829 15.1348C92.0537 14.1051 91.3673 13.5903 90.6237 13.5903C89.1365 13.5903 86.5624 16.0214 82.9015 20.8835C79.2406 25.7456 75.1507 32.3524 70.6318 40.7038L70.4602 41.905L69.688 51L67.543 51.3432L71.6615 19.9397L72.2621 12.2175L74.4071 11.8743L71.3182 35.2124H71.7473C75.4653 28.8059 78.7258 23.6864 81.5287 19.8539C84.3888 16.0214 87.2202 13.1899 90.0231 11.3595H90.9669ZM111.758 43.5352L111.586 45.2513C111.586 46.6813 111.872 47.7967 112.444 48.5975C113.073 49.3412 113.931 49.713 115.018 49.713C116.22 49.713 117.592 48.9122 119.137 47.3105C120.738 45.7089 122.311 43.5066 123.856 40.7038H124.457L125.229 41.7334C123.169 45.1083 121.425 47.4821 119.995 48.8549C118.622 50.1706 117.078 51.0286 115.361 51.429C113.588 51.429 112.215 50.9428 111.243 49.9704C110.328 48.9408 109.87 47.4535 109.87 45.5087L110.042 43.621L114.074 19.9397L114.932 14.1909H108.841L108.497 13.8477L108.755 12.4749H115.19L116.82 1.23484L118.708 0.376816L118.965 0.634224L116.992 12.4749H129.347L129.605 12.8181L129.347 14.1909H116.649L111.758 43.5352ZM161.167 11.8743L157.22 41.905L156.448 51L154.303 51.3432L157.392 27.7477H157.049C154.474 32.6098 151.7 37.0715 148.726 41.1328C145.751 45.1941 142.748 48.5975 139.717 51.3432H138.773C137.228 50.1992 136.084 48.7119 135.341 46.8815C134.654 45.0511 134.311 42.5056 134.311 39.2451C134.311 34.383 135.055 29.9213 136.542 25.86C138.086 21.7987 140.317 18.5096 143.234 15.9928C146.209 13.4759 149.727 12.0745 153.788 11.7885H154.131L159.708 12.2175L160.738 11.6169L161.167 11.8743ZM139.459 48.9408C139.917 48.9408 141.147 47.7967 143.149 45.5087C145.208 43.2206 147.582 40.0745 150.27 36.0705C152.959 32.0664 155.561 27.5189 158.078 22.4279L158.421 19.9397L159.022 13.9335L153.96 13.5045C150.356 13.5617 147.181 14.7916 144.436 17.194C141.747 19.5393 139.659 22.6567 138.172 26.5464C136.742 30.3789 136.027 34.4974 136.027 38.9019C136.027 41.2472 136.227 43.1634 136.628 44.6507C137.028 46.1379 137.486 47.2247 138 47.9111C138.572 48.5975 139.059 48.9408 139.459 48.9408ZM196.078 13.5045L196.507 14.1051L195.992 15.3064L195.563 15.5638C193.446 14.2481 191.616 13.5903 190.072 13.5903C185.209 13.6475 181.406 15.9356 178.66 20.4545C175.914 24.9734 174.541 31.1225 174.541 38.9019C174.541 42.6772 175.056 45.4229 176.086 47.1389C177.173 48.7977 178.746 49.6272 180.805 49.6272C182.635 49.6272 184.466 48.9694 186.296 47.6537C188.184 46.2809 189.929 44.0214 191.53 40.8754H192.045L192.817 41.9908C191.044 45.1369 189.214 47.4249 187.326 48.8549C185.438 50.2278 183.293 51.0858 180.891 51.429H180.204C178.66 51.143 177.344 50.6568 176.257 49.9704C175.228 49.284 174.398 48.0541 173.769 46.2809C173.14 44.5076 172.825 42.0194 172.825 38.8161C172.825 30.7507 174.37 24.2584 177.459 19.3391C180.548 14.3625 185.152 11.8743 191.273 11.8743L196.078 13.5045ZM207.766 43.5352L207.594 45.2513C207.594 46.6813 207.88 47.7967 208.452 48.5975C209.081 49.3412 209.939 49.713 211.026 49.713C212.227 49.713 213.6 48.9122 215.145 47.3105C216.746 45.7089 218.319 43.5066 219.864 40.7038H220.464L221.236 41.7334C219.177 45.1083 217.433 47.4821 216.003 48.8549C214.63 50.1706 213.085 51.0286 211.369 51.429C209.596 51.429 208.223 50.9428 207.251 49.9704C206.336 48.9408 205.878 47.4535 205.878 45.5087L206.05 43.621L210.082 19.9397L210.94 14.1909H204.848L204.505 13.8477L204.762 12.4749H211.198L212.828 1.23484L214.716 0.376816L214.973 0.634224L212.999 12.4749H225.355L225.612 12.8181L225.355 14.1909H212.656L207.766 43.5352Z" fill="white"/>
</svg>
