<svg width="24" height="20" viewBox="0 0 24 20" fill="none" xmlns="http://www.w3.org/2000/svg">
<path fill-rule="evenodd" clip-rule="evenodd" d="M1 16.2375V3.49282C1 2.64779 1.33569 1.83737 1.93321 1.23985C2.53073 0.642326 3.34115 0.306641 4.18618 0.306641H20.1171C20.9621 0.306641 21.7725 0.642326 22.37 1.23985C22.9675 1.83737 23.3032 2.64779 23.3032 3.49282V16.2375C23.3032 17.0825 22.9675 17.893 22.37 18.4905C21.7725 19.088 20.9621 19.4237 20.1171 19.4237H4.18618C3.34115 19.4237 2.53073 19.088 1.93321 18.4905C1.33569 17.893 1 17.0825 1 16.2375Z" stroke="#fafafa" stroke-width="1" stroke-linecap="round" stroke-linejoin="round"/>
<path d="M4.18616 5.8833L12.1516 10.6626L20.117 5.8833" stroke="#fafafa" stroke-width="1" stroke-linecap="round" stroke-linejoin="round"/>
</svg>
