<svg width="22" height="22" viewBox="0 0 27 27" fill="none" xmlns="http://www.w3.org/2000/svg">
<path d="M20.1576 26.0876C19.9039 26.0869 19.6509 26.0591 19.4031 26.0047C14.6851 25.0287 10.3385 22.7403 6.8637 19.403C3.46302 16.0583 1.10446 11.7998 0.0733992 7.14271C-0.0481763 6.5623 -0.0183368 5.96036 0.160047 5.39482C0.33843 4.82928 0.659355 4.31916 1.09194 3.91354L4.10986 1.0088C4.264 0.863029 4.44715 0.751397 4.64736 0.681195C4.84756 0.610993 5.06032 0.583798 5.27175 0.601385C5.49098 0.624255 5.70253 0.694875 5.89153 0.808277C6.08054 0.921679 6.2424 1.07511 6.36574 1.25778L10.1381 6.83337C10.2796 7.04971 10.3479 7.30575 10.3329 7.56381C10.318 7.82186 10.2206 8.06831 10.0551 8.26688L8.1614 10.5303C8.91562 12.1996 9.98373 13.7082 11.3076 14.9742C12.6229 16.2861 14.1775 17.3336 15.8873 18.06L18.2337 16.1964C18.4308 16.0407 18.6706 15.9486 18.9212 15.9324C19.1719 15.9163 19.4216 15.9768 19.637 16.1059L25.3333 19.7878C25.5288 19.9045 25.6953 20.0639 25.8204 20.2541C25.9456 20.4443 26.026 20.6604 26.0558 20.8861C26.0855 21.1118 26.0638 21.3414 25.9923 21.5575C25.9207 21.7736 25.8012 21.9708 25.6427 22.1342L22.7002 25.0465C22.3659 25.3791 21.9692 25.6423 21.5329 25.821C21.0965 25.9997 20.6291 26.0903 20.1576 26.0876ZM5.15104 2.09525L2.13312 4.99999C1.88977 5.22675 1.70963 5.51295 1.61041 5.83043C1.5112 6.14792 1.49633 6.48576 1.56727 6.81074C2.526 11.1808 4.72982 15.1796 7.91242 18.3241C11.1825 21.4639 15.2728 23.6163 19.7125 24.5334C20.0485 24.6037 20.3967 24.5894 20.7259 24.492C21.0551 24.3946 21.355 24.217 21.5987 23.9751L24.5411 21.0628L19.041 17.5092L16.521 19.5161C16.4245 19.5925 16.3109 19.6441 16.1899 19.6665C16.0689 19.6888 15.9443 19.6812 15.8269 19.6444C13.7345 18.8735 11.8383 17.6497 10.2739 16.0606C8.65585 14.5496 7.39985 12.6927 6.59963 10.6284C6.56578 10.5034 6.56465 10.3719 6.59637 10.2463C6.62808 10.1208 6.69156 10.0055 6.78071 9.91164L8.8178 7.47468L5.15104 2.09525Z" fill="#fafafa"/>
</svg>
