<svg width="60" height="60" viewBox="0 0 60 60" fill="none" xmlns="http://www.w3.org/2000/svg">
<path d="M3.375 55.3313L14.5812 44.125H50.25C51.9076 44.125 53.4973 43.4665 54.6694 42.2944C55.8415 41.1223 56.5 39.5326 56.5 37.875V9.75C56.5 8.0924 55.8415 6.50268 54.6694 5.33058C53.4973 4.15848 51.9076 3.5 50.25 3.5H9.625C7.9674 3.5 6.37768 4.15848 5.20558 5.33058C4.03348 6.50268 3.375 8.0924 3.375 9.75V55.3313ZM3.375 59.75H0.25V9.75C0.25 7.2636 1.23772 4.87903 2.99587 3.12087C4.75403 1.36272 7.1386 0.375 9.625 0.375H50.25C52.7364 0.375 55.121 1.36272 56.8791 3.12087C58.6373 4.87903 59.625 7.2636 59.625 9.75V37.875C59.625 40.3614 58.6373 42.746 56.8791 44.5041C55.121 46.2623 52.7364 47.25 50.25 47.25H15.875L3.375 59.75ZM12.75 12.875H47.125V16H12.75V12.875ZM12.75 22.25H47.125V25.375H12.75V22.25ZM12.75 31.625H37.75V34.75H12.75V31.625Z" fill="black"/>
</svg>
